<svg xmlns="http://www.w3.org/2000/svg" width="360" height="96" viewBox="0 0 360 96"><path d="M22,0 H74 A22,22 0 0 1 96,22 V74 A22,22 0 0 1 74,96 H22 A22,22 0 0 1 0,74 V22 A22,22 0 0 1 22,0 Z" fill="#3C4D59"></path><rect x="26" y="28" width="44" height="11" rx="3" fill="#FFFFFF"></rect><rect x="42.5" y="28" width="11" height="48" rx="3" fill="#FFFFFF"></rect><path d="M53,54 C61,53 69,46 71,37 C62,39 55,45 53,54 Z" fill="#FFFFFF"></path><text x="116" y="63" font-family="Space Grotesk, Arial, sans-serif" font-weight="600" font-size="54" letter-spacing="-2.5" fill="#1B252C">Townly</text></svg>
